<?xml version="1.0" encoding="UTF-8"?>
<svg width="233px" height="28px" viewBox="0 0 233 28" version="1.1" xmlns="http://www.w3.org/2000/svg" xmlns:xlink="http://www.w3.org/1999/xlink">
    <!-- Generator: Sketch 48.1 (47250) - http://www.bohemiancoding.com/sketch -->
    <title>logo</title>
    <desc>Created with Sketch.</desc>
    <defs></defs>
    <g id="G.U.I" stroke="none" stroke-width="1" fill="none" fill-rule="evenodd" transform="translate(-54.000000, -57.000000)">
        <g id="logo" transform="translate(54.000000, 57.000000)">
            <path d="M87.18,16.66 C87.18,17.3600035 87.3949978,17.8999981 87.825,18.28 C88.2550021,18.6600019 88.8199965,18.85 89.52,18.85 C90.0800028,18.85 90.6399972,18.7400011 91.2,18.52 L91.2,22 C90.6999975,22.1600008 90.1700028,22.2949995 89.61,22.405 C89.0499972,22.5150005 88.4900028,22.57 87.93,22.57 C87.2899968,22.57 86.6800029,22.4900008 86.1,22.33 C85.5199971,22.1699992 85.0000023,21.895002 84.54,21.505 C84.0799977,21.1149981 83.7150013,20.5950033 83.445,19.945 C83.1749986,19.2949968 83.04,18.4900048 83.04,17.53 L83.04,10.81 L80.91,10.81 L80.91,8.02 L83.04,7.12 L83.04,3.79 L87.18,3.79 L87.18,7.12 L91.2,7.12 L91.2,10.81 L87.18,10.81 L87.18,16.66 Z M101.46,6.7 C102.440005,6.7 103.354996,6.90499795 104.205,7.315 C105.055004,7.72500205 105.789997,8.28499645 106.41,8.995 C107.030003,9.70500355 107.514998,10.5349952 107.865,11.485 C108.215002,12.4350047 108.39,13.4499946 108.39,14.53 L108.39,22 L104.34,22 L104.34,19.27 C104.34,18.5099962 104.345,17.7250041 104.355,16.915 C104.365,16.104996 104.37,15.4100029 104.37,14.83 C104.37,14.2699972 104.280001,13.7200027 104.1,13.18 C103.919999,12.6399973 103.670002,12.1650021 103.35,11.755 C103.029998,11.344998 102.655002,11.0150013 102.225,10.765 C101.794998,10.5149988 101.340002,10.39 100.86,10.39 C100.399998,10.39 99.9600021,10.4749992 99.54,10.645 C99.1199979,10.8150009 98.7500016,11.0649983 98.43,11.395 C98.1099984,11.7250016 97.8550009,12.1399975 97.665,12.64 C97.474999,13.1400025 97.38,13.7299966 97.38,14.41 L97.38,22 L93.21,22 L93.21,0.1 L97.38,0.1 L97.38,8.26 C97.9000026,7.7599975 98.4949966,7.37500135 99.165,7.105 C99.8350033,6.83499865 100.599996,6.7 101.46,6.7 Z M117.6,6.7 C118.720006,6.7 119.739995,6.92499775 120.66,7.375 C121.580005,7.82500225 122.369997,8.41499635 123.03,9.145 C123.690003,9.87500365 124.199998,10.7149953 124.56,11.665 C124.920002,12.6150048 125.1,13.589995 125.1,14.59 C125.1,15.190003 125.020001,15.8299966 124.86,16.51 L114.24,16.51 C114.640002,17.1900034 115.209996,17.7649977 115.95,18.235 C116.690004,18.7050024 117.489996,18.94 118.35,18.94 C119.210004,18.94 119.964997,18.8700007 120.615,18.73 C121.265003,18.5899993 121.879997,18.4100011 122.46,18.19 L123.84,20.74 C123.099996,21.2600026 122.255005,21.6599986 121.305,21.94 C120.354995,22.2200014 119.340005,22.36 118.26,22.36 C117.079994,22.36 115.980005,22.1550021 114.96,21.745 C113.939995,21.334998 113.050004,20.7800035 112.29,20.08 C111.529996,19.3799965 110.930002,18.5500048 110.49,17.59 C110.049998,16.6299952 109.83,15.6100054 109.83,14.53 C109.83,13.4699947 110.029998,12.4650047 110.43,11.515 C110.830002,10.5649953 111.384996,9.73500355 112.095,9.025 C112.805004,8.31499645 113.629995,7.7500021 114.57,7.33 C115.510005,6.9099979 116.519995,6.7 117.6,6.7 Z M120.99,13.3 C120.749999,12.4399957 120.320003,11.7400027 119.7,11.2 C119.079997,10.6599973 118.380004,10.39 117.6,10.39 C116.799996,10.39 116.075003,10.6599973 115.425,11.2 C114.774997,11.7400027 114.330001,12.4399957 114.09,13.3 L120.99,13.3 Z M133.59,16.66 C133.59,17.3600035 133.804998,17.8999981 134.235,18.28 C134.665002,18.6600019 135.229997,18.85 135.93,18.85 C136.490003,18.85 137.049997,18.7400011 137.61,18.52 L137.61,22 C137.109998,22.1600008 136.580003,22.2949995 136.02,22.405 C135.459997,22.5150005 134.900003,22.57 134.34,22.57 C133.699997,22.57 133.090003,22.4900008 132.51,22.33 C131.929997,22.1699992 131.410002,21.895002 130.95,21.505 C130.489998,21.1149981 130.125001,20.5950033 129.855,19.945 C129.584999,19.2949968 129.45,18.4900048 129.45,17.53 L129.45,10.81 L127.32,10.81 L127.32,8.02 L129.45,7.12 L129.45,3.79 L133.59,3.79 L133.59,7.12 L137.61,7.12 L137.61,10.81 L133.59,10.81 L133.59,16.66 Z M143.67,9.19 C143.870001,8.8699984 144.099999,8.56500145 144.36,8.275 C144.620001,7.98499855 144.929998,7.72500115 145.29,7.495 C145.650002,7.26499885 146.059998,7.0800007 146.52,6.94 C146.980002,6.7999993 147.499997,6.73 148.08,6.73 C148.760003,6.73 149.549996,6.8499988 150.45,7.09 L150.06,10.78 C149.839999,10.7399998 149.620001,10.6900003 149.4,10.63 C149.219999,10.5899998 149.020001,10.5550001 148.8,10.525 C148.579999,10.4949998 148.380001,10.48 148.2,10.48 C147.559997,10.48 146.965003,10.5699991 146.415,10.75 C145.864997,10.9300009 145.390002,11.1799984 144.99,11.5 C144.589998,11.8200016 144.270001,12.2049978 144.03,12.655 C143.789999,13.1050022 143.67,13.5899974 143.67,14.11 L143.67,22 L139.53,22 L139.53,7.12 L143.28,7.12 L143.67,9.19 Z M159.27,6.7 C160.330005,6.7 161.329995,6.90499795 162.27,7.315 C163.210005,7.72500205 164.029996,8.28499645 164.73,8.995 C165.430003,9.70500355 165.984998,10.5349952 166.395,11.485 C166.805002,12.4350047 167.01,13.4499946 167.01,14.53 C167.01,15.6100054 166.805002,16.6249953 166.395,17.575 C165.984998,18.5250048 165.430003,19.3549965 164.73,20.065 C164.029996,20.7750036 163.210005,21.334998 162.27,21.745 C161.329995,22.1550021 160.330005,22.36 159.27,22.36 C158.189995,22.36 157.180005,22.1550021 156.24,21.745 C155.299995,21.334998 154.480003,20.7750036 153.78,20.065 C153.079996,19.3549965 152.525002,18.5250048 152.115,17.575 C151.704998,16.6249953 151.5,15.6100054 151.5,14.53 C151.5,13.4499946 151.704998,12.4350047 152.115,11.485 C152.525002,10.5349952 153.079996,9.70500355 153.78,8.995 C154.480003,8.28499645 155.299995,7.72500205 156.24,7.315 C157.180005,6.90499795 158.189995,6.7 159.27,6.7 Z M159.27,18.73 C159.770003,18.73 160.234998,18.630001 160.665,18.43 C161.095002,18.229999 161.474998,17.9550018 161.805,17.605 C162.135002,17.2549982 162.394999,16.8350025 162.585,16.345 C162.775001,15.8549975 162.87,15.310003 162.87,14.71 C162.87,14.109997 162.775001,13.5500026 162.585,13.03 C162.394999,12.5099974 162.135002,12.055002 161.805,11.665 C161.474998,11.2749981 161.095002,10.9650012 160.665,10.735 C160.234998,10.5049989 159.770003,10.39 159.27,10.39 C158.769998,10.39 158.300002,10.5049989 157.86,10.735 C157.419998,10.9650012 157.035002,11.2749981 156.705,11.665 C156.374998,12.055002 156.115001,12.5099974 155.925,13.03 C155.734999,13.5500026 155.64,14.109997 155.64,14.71 C155.64,15.310003 155.734999,15.8549975 155.925,16.345 C156.115001,16.8350025 156.374998,17.2549982 156.705,17.605 C157.035002,17.9550018 157.419998,18.229999 157.86,18.43 C158.300002,18.630001 158.769998,18.73 159.27,18.73 Z M176.49,6.7 C177.550005,6.7 178.549995,6.90499795 179.49,7.315 C180.430005,7.72500205 181.249997,8.28499645 181.95,8.995 C182.650004,9.70500355 183.204998,10.5349952 183.615,11.485 C184.025002,12.4350047 184.23,13.4499946 184.23,14.53 C184.23,15.6100054 184.025002,16.6249953 183.615,17.575 C183.204998,18.5250048 182.650004,19.3549965 181.95,20.065 C181.249997,20.7750036 180.430005,21.334998 179.49,21.745 C178.549995,22.1550021 177.550005,22.36 176.49,22.36 C175.409995,22.36 174.400005,22.1550021 173.46,21.745 C172.519995,21.334998 171.700004,20.7750036 171,20.065 C170.299997,19.3549965 169.745002,18.5250048 169.335,17.575 C168.924998,16.6249953 168.72,15.6100054 168.72,14.53 C168.72,13.4499946 168.924998,12.4350047 169.335,11.485 C169.745002,10.5349952 170.299997,9.70500355 171,8.995 C171.700004,8.28499645 172.519995,7.72500205 173.46,7.315 C174.400005,6.90499795 175.409995,6.7 176.49,6.7 Z M176.49,18.73 C176.990003,18.73 177.454998,18.630001 177.885,18.43 C178.315002,18.229999 178.694998,17.9550018 179.025,17.605 C179.355002,17.2549982 179.614999,16.8350025 179.805,16.345 C179.995001,15.8549975 180.09,15.310003 180.09,14.71 C180.09,14.109997 179.995001,13.5500026 179.805,13.03 C179.614999,12.5099974 179.355002,12.055002 179.025,11.665 C178.694998,11.2749981 178.315002,10.9650012 177.885,10.735 C177.454998,10.5049989 176.990003,10.39 176.49,10.39 C175.989998,10.39 175.520002,10.5049989 175.08,10.735 C174.639998,10.9650012 174.255002,11.2749981 173.925,11.665 C173.594998,12.055002 173.335001,12.5099974 173.145,13.03 C172.954999,13.5500026 172.86,14.109997 172.86,14.71 C172.86,15.310003 172.954999,15.8549975 173.145,16.345 C173.335001,16.8350025 173.594998,17.2549982 173.925,17.605 C174.255002,17.9550018 174.639998,18.229999 175.08,18.43 C175.520002,18.630001 175.989998,18.73 176.49,18.73 Z M195,6.7 C196.060005,6.7 197.039996,6.90499795 197.94,7.315 C198.840005,7.72500205 199.614997,8.28499645 200.265,8.995 C200.915003,9.70500355 201.424998,10.5349952 201.795,11.485 C202.165002,12.4350047 202.35,13.4499946 202.35,14.53 C202.35,15.6100054 202.165002,16.6249952 201.795,17.575 C201.424998,18.5250047 200.915003,19.3549964 200.265,20.065 C199.614997,20.7750035 198.840005,21.3349979 197.94,21.745 C197.039996,22.155002 196.060005,22.36 195,22.36 C194.139996,22.36 193.300004,22.2050015 192.48,21.895 C191.659996,21.5849984 191.020002,21.1900024 190.56,20.71 L190.56,27.94 L186.42,27.94 L186.42,7.12 L189.96,7.12 L190.56,8.14 C191.140003,7.6199974 191.789996,7.2500011 192.51,7.03 C193.230004,6.8099989 194.059995,6.7 195,6.7 Z M194.46,18.67 C195.000003,18.67 195.504998,18.5600011 195.975,18.34 C196.445002,18.1199989 196.854998,17.8250019 197.205,17.455 C197.555002,17.0849982 197.834999,16.6500025 198.045,16.15 C198.255001,15.6499975 198.36,15.1100029 198.36,14.53 C198.36,13.9699972 198.255001,13.4350026 198.045,12.925 C197.834999,12.4149975 197.555002,11.9750019 197.205,11.605 C196.854998,11.2349981 196.445002,10.9400011 195.975,10.72 C195.504998,10.4999989 195.000003,10.39 194.46,10.39 C193.919997,10.39 193.415002,10.4649993 192.945,10.615 C192.474998,10.7650008 192.065002,11.0049984 191.715,11.335 C191.364998,11.6650016 191.090001,12.0949974 190.89,12.625 C190.689999,13.1550027 190.59,13.7899963 190.59,14.53 C190.59,15.2300035 190.689999,15.8349975 190.89,16.345 C191.090001,16.8550025 191.364998,17.2849983 191.715,17.635 C192.065002,17.9850017 192.474998,18.2449992 192.945,18.415 C193.415002,18.5850009 193.919997,18.67 194.46,18.67 Z M211.47,6.7 C212.590006,6.7 213.609995,6.92499775 214.53,7.375 C215.450005,7.82500225 216.239997,8.41499635 216.9,9.145 C217.560003,9.87500365 218.069998,10.7149953 218.43,11.665 C218.790002,12.6150048 218.97,13.589995 218.97,14.59 C218.97,15.190003 218.890001,15.8299966 218.73,16.51 L208.11,16.51 C208.510002,17.1900034 209.079996,17.7649977 209.82,18.235 C210.560004,18.7050024 211.359996,18.94 212.22,18.94 C213.080004,18.94 213.834997,18.8700007 214.485,18.73 C215.135003,18.5899993 215.749997,18.4100011 216.33,18.19 L217.71,20.74 C216.969996,21.2600026 216.125005,21.6599986 215.175,21.94 C214.224995,22.2200014 213.210005,22.36 212.13,22.36 C210.949994,22.36 209.850005,22.1550021 208.83,21.745 C207.809995,21.334998 206.920004,20.7800035 206.16,20.08 C205.399996,19.3799965 204.800002,18.5500048 204.36,17.59 C203.919998,16.6299952 203.7,15.6100054 203.7,14.53 C203.7,13.4699947 203.899998,12.4650047 204.3,11.515 C204.700002,10.5649953 205.254996,9.73500355 205.965,9.025 C206.675004,8.31499645 207.499995,7.7500021 208.44,7.33 C209.380005,6.9099979 210.389995,6.7 211.47,6.7 Z M214.86,13.3 C214.619999,12.4399957 214.190003,11.7400027 213.57,11.2 C212.949997,10.6599973 212.250004,10.39 211.47,10.39 C210.669996,10.39 209.945003,10.6599973 209.295,11.2 C208.644997,11.7400027 208.200001,12.4399957 207.96,13.3 L214.86,13.3 Z M226.05,9.19 C226.250001,8.8699984 226.479999,8.56500145 226.74,8.275 C227.000001,7.98499855 227.309998,7.72500115 227.67,7.495 C228.030002,7.26499885 228.439998,7.0800007 228.9,6.94 C229.360002,6.7999993 229.879997,6.73 230.46,6.73 C231.140003,6.73 231.929995,6.8499988 232.83,7.09 L232.44,10.78 C232.219999,10.7399998 232.000001,10.6900003 231.78,10.63 C231.599999,10.5899998 231.400001,10.5550001 231.18,10.525 C230.959999,10.4949998 230.760001,10.48 230.58,10.48 C229.939997,10.48 229.345003,10.5699991 228.795,10.75 C228.244997,10.9300009 227.770002,11.1799984 227.37,11.5 C226.969998,11.8200016 226.650001,12.2049978 226.41,12.655 C226.169999,13.1050022 226.05,13.5899974 226.05,14.11 L226.05,22 L221.91,22 L221.91,7.12 L225.66,7.12 L226.05,9.19 Z" id="chuckthetrooper" fill="#696969"></path>
            <path d="M8.67,10.39 C8.1699975,10.39 7.7000022,10.5049989 7.26,10.735 C6.8199978,10.9650012 6.43500165,11.2749981 6.105,11.665 C5.77499835,12.055002 5.51500095,12.5099974 5.325,13.03 C5.13499905,13.5500026 5.04,14.109997 5.04,14.71 C5.04,15.310003 5.13499905,15.8549976 5.325,16.345 C5.51500095,16.8350025 5.77499835,17.2549983 6.105,17.605 C6.43500165,17.9550018 6.8199978,18.229999 7.26,18.43 C7.7000022,18.630001 8.1699975,18.73 8.67,18.73 C9.2900031,18.73 9.89499705,18.5850015 10.485,18.295 C11.075003,18.0049986 11.5799979,17.6000026 12,17.08 L14.55,19.6 C13.8499965,20.4400042 12.9900051,21.1099975 11.97,21.61 C10.9499949,22.1100025 9.8500059,22.36 8.67,22.36 C7.5899946,22.36 6.5800047,22.1550021 5.64,21.745 C4.6999953,21.334998 3.8800035,20.7750036 3.18,20.065 C2.4799965,19.3549965 1.92500205,18.5250048 1.515,17.575 C1.10499795,16.6249953 0.9,15.6100054 0.9,14.53 C0.9,13.4499946 1.10499795,12.4350048 1.515,11.485 C1.92500205,10.5349953 2.4799965,9.70500355 3.18,8.995 C3.8800035,8.28499645 4.6999953,7.72500205 5.64,7.315 C6.5800047,6.90499795 7.5899946,6.7 8.67,6.7 C9.8900061,6.7 11.0199948,6.9599974 12.06,7.48 C13.1000052,8.0000026 13.9799964,8.7099955 14.7,9.61 L11.82,11.83 C11.2399971,11.2899973 10.7150024,10.9150011 10.245,10.705 C9.77499765,10.494999 9.2500029,10.39 8.67,10.39 Z M25.08,6.7 C26.0600049,6.7 26.9749957,6.90499795 27.825,7.315 C28.6750042,7.72500205 29.4099969,8.28499645 30.03,8.995 C30.6500031,9.70500355 31.1349982,10.5349953 31.485,11.485 C31.8350017,12.4350048 32.01,13.4499946 32.01,14.53 L32.01,22 L27.96,22 L27.96,19.27 C27.96,18.5099962 27.9649999,17.7250041 27.975,16.915 C27.985,16.104996 27.99,15.4100029 27.99,14.83 C27.99,14.2699972 27.9000009,13.7200027 27.72,13.18 C27.5399991,12.6399973 27.2900016,12.1650021 26.97,11.755 C26.6499984,11.344998 26.2750021,11.0150013 25.845,10.765 C25.4149978,10.5149988 24.9600024,10.39 24.48,10.39 C24.0199977,10.39 23.5800021,10.4749992 23.16,10.645 C22.7399979,10.8150009 22.3700016,11.0649984 22.05,11.395 C21.7299984,11.7250017 21.4750009,12.1399975 21.285,12.64 C21.094999,13.1400025 21,13.7299966 21,14.41 L21,22 L16.83,22 L16.83,0.1 L21,0.1 L21,8.26 C21.5200026,7.7599975 22.1149966,7.37500135 22.785,7.105 C23.4550033,6.83499865 24.2199957,6.7 25.08,6.7 Z M43.29,7.12 L47.43,7.12 L47.43,22 L43.89,22 L43.29,20.86 C42.8099976,21.2000017 42.2650031,21.474999 41.655,21.685 C41.044997,21.8950011 40.3900035,22 39.69,22 C39.1499973,22 38.5350035,21.9200008 37.845,21.76 C37.1549966,21.5999992 36.510003,21.3000022 35.91,20.86 C35.309997,20.4199978 34.8050021,19.8100039 34.395,19.03 C33.984998,18.2499961 33.78,17.2400062 33.78,16 L33.78,7.12 L37.95,7.12 L37.95,15.85 C37.95,16.3100023 38.0249993,16.6999984 38.175,17.02 C38.3250008,17.3400016 38.5249988,17.5949991 38.775,17.785 C39.0250013,17.9750009 39.3099984,18.1149996 39.63,18.205 C39.9500016,18.2950005 40.2799983,18.34 40.62,18.34 C40.8800013,18.34 41.1649985,18.2950005 41.475,18.205 C41.7850016,18.1149996 42.0749987,17.970001 42.345,17.77 C42.6150014,17.569999 42.8399991,17.3100016 43.02,16.99 C43.2000009,16.6699984 43.29,16.2900022 43.29,15.85 L43.29,7.12 Z M57.48,10.39 C56.9799975,10.39 56.5100022,10.5049989 56.07,10.735 C55.6299978,10.9650012 55.2450016,11.2749981 54.915,11.665 C54.5849983,12.055002 54.325001,12.5099974 54.135,13.03 C53.944999,13.5500026 53.85,14.109997 53.85,14.71 C53.85,15.310003 53.944999,15.8549976 54.135,16.345 C54.325001,16.8350025 54.5849983,17.2549983 54.915,17.605 C55.2450016,17.9550018 55.6299978,18.229999 56.07,18.43 C56.5100022,18.630001 56.9799975,18.73 57.48,18.73 C58.1000031,18.73 58.704997,18.5850015 59.295,18.295 C59.8850029,18.0049986 60.3899979,17.6000026 60.81,17.08 L63.36,19.6 C62.6599965,20.4400042 61.8000051,21.1099975 60.78,21.61 C59.7599949,22.1100025 58.6600059,22.36 57.48,22.36 C56.3999946,22.36 55.3900047,22.1550021 54.45,21.745 C53.5099953,21.334998 52.6900035,20.7750036 51.99,20.065 C51.2899965,19.3549965 50.7350021,18.5250048 50.325,17.575 C49.914998,16.6249953 49.71,15.6100054 49.71,14.53 C49.71,13.4499946 49.914998,12.4350048 50.325,11.485 C50.7350021,10.5349953 51.2899965,9.70500355 51.99,8.995 C52.6900035,8.28499645 53.5099953,7.72500205 54.45,7.315 C55.3900047,6.90499795 56.3999946,6.7 57.48,6.7 C58.7000061,6.7 59.8299948,6.9599974 60.87,7.48 C61.9100052,8.0000026 62.7899964,8.7099955 63.51,9.61 L60.63,11.83 C60.0499971,11.2899973 59.5250024,10.9150011 59.055,10.705 C58.5849976,10.494999 58.0600029,10.39 57.48,10.39 Z M73.86,13.3 L80.13,22 L75.18,22 L71.25,16.06 L69.78,17.65 L69.78,22 L65.64,22 L65.64,0.1 L69.78,0.1 L69.78,12.25 L74.61,7.12 L79.65,7.12 L73.86,13.3 Z" id="Combined-Shape" fill="#F25A24"></path>
        </g>
    </g>
</svg>